<svg width="64" height="64" viewBox="0 0 64 64" fill="none" xmlns="http://www.w3.org/2000/svg">
<rect width="64" height="64" fill="white"/>
<ellipse cx="32" cy="14" rx="11" ry="3" stroke="black" stroke-width="1.5"/>
<line x1="29.0607" y1="30" x2="35.0711" y2="36.0104" stroke="black" stroke-width="1.5" stroke-linecap="round"/>
<line x1="17.0607" y1="30" x2="23.0711" y2="36.0104" stroke="black" stroke-width="1.5" stroke-linecap="round"/>
<line x1="5.06066" y1="30" x2="11.0711" y2="36.0104" stroke="black" stroke-width="1.5" stroke-linecap="round"/>
<path d="M21 14.5C1.26606 31.1267 3.5072 40.1792 32 56" stroke="black" stroke-width="1.5" stroke-linecap="round"/>
<path d="M32 56L32 17.5" stroke="black" stroke-width="1.5" stroke-linecap="round"/>
<path d="M26.5581 17C15.7829 31.8063 18.7635 40.4041 32 56" stroke="black" stroke-width="1.5" stroke-linecap="round"/>
<line x1="52.9896" y1="30" x2="59" y2="36.0104" stroke="black" stroke-width="1.5" stroke-linecap="round"/>
<line x1="40.9896" y1="30" x2="47" y2="36.0104" stroke="black" stroke-width="1.5" stroke-linecap="round"/>
<path d="M43 14.5C62.7339 31.1267 60.4928 40.1792 32 56" stroke="black" stroke-width="1.5" stroke-linecap="round"/>
<path d="M37.4419 17C48.2171 31.8063 45.2365 40.4041 32 56" stroke="black" stroke-width="1.5" stroke-linecap="round"/>
</svg>
